PathFileType	4	(X/Y/Z)	output_15markers.trc
DataRate	CameraRate	NumFrames	NumMarkers	Units	OrigDataRate	OrigDataStartFrame	OrigNumFrames
30	30	9	15	m	30	137	1089
Frame#	Time	Hip			RHip			RKnee			RAnkle			LHip			LKnee			LAnkle			Neck			Head			RShoulder			RElbow			RWrist			LShoulder			LElbow			LWrist
		X1	Y1	Z1	X2	Y2	Z2	X3	Y3	Z3	X4	Y4	Z4	X5	Y5	Z5	X6	Y6	Z6	X7	Y7	Z7	X8	Y8	Z8	X9	Y9	Z9	X10	Y10	Z10	X11	Y11	Z11	X12	Y12	Z12	X13	Y13	Z13	X14	Y14	Z14	X15	Y15	Z15

137	4.533333	-0.000031	0.825592	-0.000184	0.092681	0.825462	0.033715	0.109130	0.430549	0.005805	0.192271	0.000000	0.048277	-0.092679	0.825750	-0.033722	0.039069	0.444292	-0.076446	0.069259	0.026335	0.076883	-0.008480	1.445182	-0.154001	0.007441	1.496494	-0.172319	0.069504	1.298743	0.060341	0.146974	1.039375	0.147671	0.183004	0.827420	0.083861	-0.111742	1.285990	-0.008154	-0.134927	1.020487	0.042860	-0.103515	0.802415	0.022535
138	4.566667	-0.000030	0.838103	-0.000182	0.087379	0.834999	0.034022	0.094254	0.437867	0.006152	0.159617	0.000000	0.055870	-0.087379	0.841235	-0.034024	0.036047	0.452877	-0.081679	0.058474	0.022643	0.019443	-0.004461	1.446874	-0.161799	0.001826	1.496120	-0.179664	0.063605	1.302361	0.060078	0.146243	1.045900	0.138543	0.177904	0.834175	0.088059	-0.107078	1.288230	-0.004920	-0.127043	1.021445	0.051149	-0.094851	0.803555	0.034766
139	4.600000	-0.000027	0.825369	-0.000182	0.088133	0.823562	0.037714	0.094459	0.430836	0.014077	0.164243	0.000000	0.070286	-0.088134	0.827206	-0.037717	0.037834	0.443612	-0.086622	0.056668	0.013926	-0.004062	-0.011612	1.434239	-0.168080	-0.009573	1.485804	-0.189952	0.065131	1.296143	0.056903	0.157741	1.042881	0.138505	0.197269	0.836150	0.085890	-0.110069	1.281462	-0.010936	-0.127758	1.015548	0.044686	-0.091837	0.801376	0.034278
140	4.633333	-0.000028	0.833756	-0.000181	0.086738	0.830121	0.037521	0.085216	0.437154	0.017859	0.143828	0.000000	0.082938	-0.086740	0.837418	-0.037521	0.032845	0.451000	-0.088987	0.049937	0.018726	-0.010039	-0.008737	1.440161	-0.163637	-0.009763	1.487663	-0.185669	0.062636	1.296983	0.061643	0.154540	1.044851	0.139908	0.188980	0.835208	0.102115	-0.109374	1.282622	-0.004995	-0.132617	1.011703	0.053036	-0.098935	0.801713	0.040558
141	4.666667	-0.000027	0.831034	-0.000182	0.085033	0.826290	0.037124	0.086743	0.436574	0.027462	0.148456	0.000000	0.100042	-0.085035	0.835808	-0.037124	0.030910	0.445351	-0.072062	0.055329	0.016042	0.005062	-0.009944	1.437743	-0.157697	-0.011920	1.483417	-0.181165	0.062160	1.293742	0.069974	0.159453	1.046373	0.143972	0.199443	0.839183	0.098099	-0.107735	1.276989	0.002487	-0.129149	1.005538	0.055828	-0.092690	0.798700	0.041089
142	4.700000	-0.000027	0.826303	-0.000180	0.085244	0.822133	0.040453	0.091263	0.435927	0.031522	0.151223	0.000000	0.118146	-0.085245	0.830502	-0.040455	0.038345	0.446007	-0.070293	0.058921	0.017270	0.010812	-0.009344	1.433441	-0.157824	-0.014115	1.479042	-0.181162	0.064303	1.290801	0.068558	0.161721	1.044378	0.140311	0.213173	0.842530	0.080007	-0.109236	1.274860	-0.005987	-0.131872	1.005441	0.049851	-0.093045	0.792695	0.034160
143	4.733333	-0.000026	0.830191	-0.000171	0.084828	0.824861	0.037119	0.089928	0.437789	0.033430	0.143992	0.000000	0.121333	-0.084831	0.835552	-0.037117	0.032426	0.451681	-0.059452	0.052218	0.019693	0.013958	-0.010777	1.434877	-0.158272	-0.017706	1.484689	-0.178737	0.063752	1.291296	0.060250	0.160059	1.042855	0.128605	0.209245	0.837542	0.070828	-0.108202	1.273704	-0.005403	-0.127627	1.003953	0.044836	-0.090284	0.796541	0.019737
144	4.766667	-0.000026	0.829309	-0.000173	0.084259	0.823564	0.041214	0.093921	0.435833	0.034689	0.148123	0.000000	0.132368	-0.084260	0.835081	-0.041215	0.039618	0.450531	-0.062326	0.055594	0.023749	0.016968	-0.007444	1.432570	-0.162896	-0.020358	1.482580	-0.184217	0.064264	1.293577	0.063858	0.160494	1.046015	0.126003	0.206165	0.842066	0.044746	-0.110447	1.278839	-0.016479	-0.127253	1.009977	0.031872	-0.090368	0.799802	0.003390
145	4.800000	-0.000027	0.831975	-0.000175	0.082675	0.825353	0.042277	0.099341	0.437651	0.039430	0.153733	0.000000	0.142293	-0.082673	0.838620	-0.042284	0.035714	0.452829	-0.052938	0.048576	0.020616	0.014294	-0.008470	1.436538	-0.168974	-0.023153	1.486528	-0.193838	0.059574	1.296425	0.062839	0.160988	1.049253	0.114863	0.219079	0.840973	0.033733	-0.109360	1.280743	-0.022313	-0.123361	1.013481	0.021547	-0.086188	0.801701	-0.004614
